<svg id="Layer_1" data-name="Layer 1" xmlns="http://www.w3.org/2000/svg" viewBox="0 0 1080 1080"><defs><style>.cls-1{font-size:70px;font-family:ArialRoundedMTBold, Arial Rounded MT Bold;letter-spacing:0.01em;}.cls-1,.cls-6{fill:#1c1c1c;}.cls-2{letter-spacing:-0.03em;}.cls-3{letter-spacing:0.01em;}.cls-4{letter-spacing:-0.04em;}.cls-5{fill:#f8991b;}</style></defs><text class="cls-1" transform="translate(329.85 734.5)">AL<tspan class="cls-2" x="94.03" y="0">B</tspan><tspan class="cls-3" x="142.41" y="0">AIA </tspan><tspan x="285.31" y="0">L</tspan><tspan class="cls-4" x="328.29" y="0">L</tspan><tspan x="367.78" y="0">C</tspan></text><circle class="cls-5" cx="541.96" cy="633.92" r="18.93"/><circle class="cls-5" cx="644.57" cy="625.92" r="18.93"/><polygon class="cls-5" points="589.38 501.01 563.23 531.37 562.7 531.98 509.99 531.98 501.69 501.01 589.38 501.01"/><path class="cls-5" d="M704.48,438.41A92.48,92.48,0,0,1,612,532H581.55l1-1.1L608.23,501h4.15a61.54,61.54,0,0,0,61.51-61.76c-.13-34-28.4-61.27-62.43-61.27H468.73l-8.3-31H610.81C661.67,347,703.9,387.56,704.48,438.41Z"/><polygon class="cls-5" points="590.03 423.12 562.62 454.94 489.35 454.94 480.82 423.12 590.03 423.12"/><path class="cls-6" d="M731.18,573.49l-6.58-26.68a25,25,0,0,0-14.5-17l-25.3-10.74a4.23,4.23,0,0,1,2-8.1L739,515.13a5.06,5.06,0,0,1,4.63,5.43l-4.17,52.25A4.23,4.23,0,0,1,731.18,573.49Z"/><path class="cls-6" d="M702.56,568.37c-6,2.79-13.73,6-23.07,9.33h0c-27.69,9.72-70.07,19.92-125.94,19.86A501.79,501.79,0,0,1,474.07,591c-.69-.11-1.4-.16-2.1-.21a15.58,15.58,0,0,1-14-11.53L402.29,371.46a2.8,2.8,0,0,0-2.71-2.08H353.17c-10.68,0-19.71-8.45-19.81-19.13a19.33,19.33,0,0,1,19.32-19.51h64.48a18.53,18.53,0,0,1,17.9,13.73l54.41,203a6.24,6.24,0,0,0,6,4.62s37.18,8.2,86,6.48h0a351.19,351.19,0,0,0,36.05-3.1c23.08-3.23,47.23-9.16,70.34-19.3a17.66,17.66,0,0,1,14.62,32.15Z"/></svg>